<svg
  version="1.1"
  baseProfile="full"
  width="100%" height="100%"
  xmlns="http://www.w3.org/2000/svg"
  viewBox="0 0 1400 800"
>

  <rect x="1300" y="400" rx="40" ry="40" width="300" height="300" stroke="rgb(129, 201, 149)" fill="rgb(129, 201, 149)">
    <animateTransform attributeType="XML" attributeName="transform" begin="0s" dur="35s" type="rotate" from="0 1450 550" to="360 1450 550" repeatCount="indefinite" />
  </rect>
  
  <path d="M 100 350 A 150 150 0 1 1 400 350 Q400 370 380 370 L 250 370 L 120 370 Q100 370 100 350" stroke="rgb(253, 214, 99)" fill="rgb(253, 214, 99)">
    <animateMotion path="M 800 -200 L 800 -300 L 800 -200" dur="20s" begin="0s" repeatCount="indefinite" />
    <animateTransform attributeType="XML" attributeName="transform" begin="0s" dur="30s" type="rotate" values="0 210 530 ; -30 210 530 ; 0 210 530" keyTimes="0 ; 0.5 ; 1" repeatCount="indefinite" />
  </path>

  <circle cx="200" cy="150" r="20" stroke="#1a73e8" fill="#1a73e8">
    <animateMotion path="M 0 0 L 40 20 Z" dur="5s" repeatCount="indefinite" />
  </circle>
  <defs>
  <g id="corgi" transform="scale(0.5)">
    <path d="M765.866667 597.333333v277.333334c42.666667 0 42.666667 42.666667 42.666666 42.666666h-85.333333c-42.666667 0-42.666667-42.666667-42.666667-42.666666V661.333333l85.333334-64z m-576 128v149.333334s0 42.666667 42.666666 42.666666h85.333334s0-42.666667-42.666667-42.666666v-85.333334l-85.333333-64z" fill="#B0BEC5" p-id="4942"></path><path d="M403.2 490.666667s-234.666667-70.4-234.666667 128c0 40.533333 21.333333 149.333333 21.333334 149.333333v85.333333l85.333333-21.333333v-21.333333c19.2-29.866667 91.733333-17.066667 149.333333-64 36.266667-27.733333-21.333333-256-21.333333-256z" fill="#BF360C" p-id="4943"></path><path d="M23.466667 640l19.2 21.333333 36.266666-21.333333c21.333333-38.4 46.933333-42.666667 46.933334-42.666667l42.666666-106.666666s-123.733333 6.4-145.066666 149.333333z" fill="#E65100" p-id="4944"></path><path d="M211.2 725.333333v149.333334c42.666667 0 42.666667 42.666667 42.666667 42.666666h-85.333334c-42.666667 0-42.666667-42.666667-42.666666-42.666666v-149.333334h85.333333zM874.666667 320s-6.4-19.2-19.2-38.4c-6.4-10.666667-14.933333-21.333333-23.466667-25.6-29.866667-21.333333-66.133333-21.333333-66.133333-21.333333s-38.4-134.4-85.333334-128-42.666667 170.666667-42.666666 170.666666c-12.8 19.2-21.333333 42.666667-21.333334 42.666667-25.6 68.266667-83.2 149.333333-125.866666 149.333333h-42.666667l-85.333333 277.333334s72.533333 38.4 243.2 42.666666l12.8 85.333334s0 42.666667 42.666666 42.666666h85.333334s0-42.666667-42.666667-42.666666v-93.866667c130.133333-36.266667 128-183.466667 128-183.466667s-12.8-70.4-21.333333-106.666666c-12.8-53.333333 160-29.866667 192-106.666667v-42.666667l-128-21.333333zM23.466667 640c-2.133333 12.8-4.266667 27.733333-4.266667 42.666667 0 12.8 8.533333 21.333333 21.333333 21.333333s21.333333-8.533333 21.333334-21.333333c4.266667-17.066667 10.666667-32 17.066666-42.666667H23.466667z" fill="#CFD8DC" p-id="4945"></path><path d="M595.2 725.333333l8.533333 64c-166.4 0-243.2-42.666667-243.2-42.666666s-8.533333-2.133333-21.333333-8.533334c-55.466667 32-119.466667 27.733333-128 72.533334v21.333333l-85.333333 21.333333v-85.333333s-21.333333-108.8-21.333334-149.333333c0-198.4 234.666667-149.333333 234.666667-149.333334H490.666667s17.066667 46.933333 61.866666 85.333334c187.733333 153.6 42.666667 170.666667 42.666667 170.666666z m170.666667-490.666666s-38.4-134.4-85.333334-128 0 170.666667 0 170.666666-85.333333 170.666667 0 170.666667c17.066667-38.4 177.066667-42.666667 192-64s2.133333-64 2.133334-64-12.8-42.666667-42.666667-64-66.133333-21.333333-66.133333-21.333333z" fill="#F57F17" p-id="4946"></path><path d="M808.533333 298.666667c-12.8 0-21.333333 8.533333-21.333333 21.333333v21.333333h21.333333c12.8 0 21.333333-8.533333 21.333334-21.333333s-8.533333-21.333333-21.333334-21.333333z" fill="#3E2723" p-id="4947"></path><path d="M957.866667 334.933333v6.4c0 38.4 44.8 42.666667 44.8 42.666667v-42.666667l-44.8-6.4z" fill="#4E342E" p-id="4948"></path><path d="M680.533333 277.333333s-6.4-19.2-8.533333-34.133333c-4.266667-14.933333-8.533333-36.266667-12.8-57.6-2.133333-21.333333-4.266667-44.8 2.133333-59.733333 2.133333-8.533333 8.533333-12.8 12.8-14.933334 4.266667-4.266667 8.533333-4.266667 6.4-4.266666 0 0-2.133333 0-6.4 4.266666-2.133333 2.133333-6.4 8.533333-6.4 14.933334-2.133333 14.933333 4.266667 34.133333 12.8 53.333333 8.533333 19.2 17.066667 36.266667 23.466667 49.066667 8.533333 12.8 12.8 21.333333 12.8 21.333333s-21.333333 6.4-36.266667 27.733333z" fill="#BF360C" p-id="4949"></path>
  </g>
  </defs>

  <use href="#corgi" x="500" y="250"></use>

  <!-- 三角形 -->
  <path d="M 165 580 L 270 580 Q275 578 270 570 L 223 483 Q220 480 217 483 L 165 570 Q160 578 165 580" stroke="rgb(238, 103, 92)" fill="rgb(238, 103, 92)">
    <animateTransform attributeType="XML" attributeName="transform" begin="0s" dur="35s" type="rotate" from="0 210 530" to="360 210 530" repeatCount="indefinite" />
  </path>

  <circle cx="1200" cy="600" r="30" stroke="rgb(241, 243, 244)" fill="rgb(241, 243, 244)">
    <animateMotion path="M 0 0 L -20 40 Z" dur="9s" repeatCount="indefinite" />
  </circle>

  <path d="M 100 350 A 40 40 0 1 1 180 350 L 180 430 A 40 40 0 1 1 100 430 Z" stroke="rgb(241, 243, 244)" fill="rgb(241, 243, 244)">
    <animateMotion path="M 140 390 L 180 360 L 140 390" dur="20s" begin="0s" repeatCount="indefinite" />
    <animateTransform attributeType="XML" attributeName="transform" begin="0s" dur="30s" type="rotate" values="0 140 390; -60 140 390; 0 140 390" keyTimes="0 ; 0.5 ; 1" repeatCount="indefinite" />
  </path>

  <rect x="400" y="600" rx="40" ry="40" width="100" height="100" stroke="rgb(129, 201, 149)" fill="rgb(129, 201, 149)">
    <animateTransform attributeType="XML" attributeName="transform" begin="0s" dur="35s" type="rotate" from="-30 550 750" to="330 550 750" repeatCount="indefinite" />
  </rect>
</svg>
