<svg baseProfile="full" xmlns="http://www.w3.org/2000/svg" viewBox="0 0 1400 800"><rect x="1300" y="400" rx="40" ry="40" width="300" height="300" stroke="#81C995" fill="#81C995"><animateTransform attributeType="XML" attributeName="transform" begin="0s" dur="35s" type="rotate" from="0 1450 550" to="360 1450 550" repeatCount="indefinite"/></rect><path d="M100 350a150 150 0 1 1 300 0q0 20-20 20H120q-20 0-20-20" stroke="#FDD663" fill="#FDD663"><animateMotion path="M 800 -200 L 800 -300 L 800 -200" dur="20s" begin="0s" repeatCount="indefinite"/><animateTransform attributeType="XML" attributeName="transform" begin="0s" dur="30s" type="rotate" values="0 210 530 ; -30 210 530 ; 0 210 530" keyTimes="0 ; 0.5 ; 1" repeatCount="indefinite"/></path><circle cx="200" cy="150" r="20" stroke="#1a73e8" fill="#1a73e8"><animateMotion path="M 0 0 L 40 20 Z" dur="5s" repeatCount="indefinite"/></circle><defs><g id="a"><path d="M765.867 597.333v277.334c42.666 0 42.666 42.666 42.666 42.666H723.2c-42.667 0-42.667-42.666-42.667-42.666V661.333l85.334-64zm-576 128v149.334s0 42.666 42.666 42.666h85.334s0-42.666-42.667-42.666v-85.334l-85.333-64z" fill="#B0BEC5" transform="scale(.5)"/><path d="M403.2 490.667s-234.667-70.4-234.667 128C168.533 659.2 189.867 768 189.867 768v85.333L275.2 832v-21.333c19.2-29.867 91.733-17.067 149.333-64 36.267-27.734-21.333-256-21.333-256z" fill="#BF360C" transform="scale(.5)"/><path d="m23.467 640 19.2 21.333L78.933 640c21.334-38.4 46.934-42.667 46.934-42.667l42.666-106.666S44.8 497.067 23.467 640z" fill="#E65100" transform="scale(.5)"/><path d="M211.2 725.333v149.334c42.667 0 42.667 42.666 42.667 42.666h-85.334c-42.666 0-42.666-42.666-42.666-42.666V725.333H211.2zM874.667 320s-6.4-19.2-19.2-38.4c-6.4-10.667-14.934-21.333-23.467-25.6-29.867-21.333-66.133-21.333-66.133-21.333s-38.4-134.4-85.334-128-42.666 170.666-42.666 170.666c-12.8 19.2-21.334 42.667-21.334 42.667-25.6 68.267-83.2 149.333-125.866 149.333H448l-85.333 277.334s72.533 38.4 243.2 42.666l12.8 85.334s0 42.666 42.666 42.666h85.334s0-42.666-42.667-42.666V780.8c130.133-36.267 128-183.467 128-183.467s-12.8-70.4-21.333-106.666c-12.8-53.334 160-29.867 192-106.667v-42.667l-128-21.333zm-851.2 320c-2.134 12.8-4.267 27.733-4.267 42.667 0 12.8 8.533 21.333 21.333 21.333s21.334-8.533 21.334-21.333c4.266-17.067 10.666-32 17.066-42.667H23.467z" fill="#CFD8DC" transform="scale(.5)"/><path d="m595.2 725.333 8.533 64c-166.4 0-243.2-42.666-243.2-42.666s-8.533-2.134-21.333-8.534c-55.467 32-119.467 27.734-128 72.534V832l-85.333 21.333V768s-21.334-108.8-21.334-149.333c0-198.4 234.667-149.334 234.667-149.334h151.467s17.066 46.934 61.866 85.334c187.734 153.6 42.667 170.666 42.667 170.666zm170.667-490.666s-38.4-134.4-85.334-128 0 170.666 0 170.666S595.2 448 680.533 448c17.067-38.4 177.067-42.667 192-64s2.134-64 2.134-64-12.8-42.667-42.667-64-66.133-21.333-66.133-21.333z" fill="#F57F17" transform="scale(.5)"/><path d="M808.533 298.667c-12.8 0-21.333 8.533-21.333 21.333v21.333h21.333c12.8 0 21.334-8.533 21.334-21.333s-8.534-21.333-21.334-21.333z" fill="#3E2723" transform="scale(.5)"/><path d="M957.867 334.933v6.4c0 38.4 44.8 42.667 44.8 42.667v-42.667l-44.8-6.4z" fill="#4E342E" transform="scale(.5)"/><path d="M680.533 277.333s-6.4-19.2-8.533-34.133c-4.267-14.933-8.533-36.267-12.8-57.6-2.133-21.333-4.267-44.8 2.133-59.733 2.134-8.534 8.534-12.8 12.8-14.934 4.267-4.266 8.534-4.266 6.4-4.266 0 0-2.133 0-6.4 4.266-2.133 2.134-6.4 8.534-6.4 14.934C665.6 140.8 672 160 680.533 179.2c8.534 19.2 17.067 36.267 23.467 49.067 8.533 12.8 12.8 21.333 12.8 21.333s-21.333 6.4-36.267 27.733z" fill="#BF360C" transform="scale(.5)"/></g></defs><use href="#a" x="500" y="250"/><path d="M165 580h105q5-2 0-10l-47-87q-3-3-6 0l-52 87q-5 8 0 10" stroke="#EE675C" fill="#EE675C"><animateTransform attributeType="XML" attributeName="transform" begin="0s" dur="35s" type="rotate" from="0 210 530" to="360 210 530" repeatCount="indefinite"/></path><circle cx="1200" cy="600" r="30" stroke="#F1F3F4" fill="#F1F3F4"><animateMotion path="M 0 0 L -20 40 Z" dur="9s" repeatCount="indefinite"/></circle><path d="M100 350a40 40 0 1 1 80 0v80a40 40 0 1 1-80 0z" stroke="#F1F3F4" fill="#F1F3F4"><animateMotion path="M 140 390 L 180 360 L 140 390" dur="20s" begin="0s" repeatCount="indefinite"/><animateTransform attributeType="XML" attributeName="transform" begin="0s" dur="30s" type="rotate" values="0 140 390; -60 140 390; 0 140 390" keyTimes="0 ; 0.5 ; 1" repeatCount="indefinite"/></path><rect x="400" y="600" rx="40" ry="40" width="100" height="100" stroke="#81C995" fill="#81C995"><animateTransform attributeType="XML" attributeName="transform" begin="0s" dur="35s" type="rotate" from="-30 550 750" to="330 550 750" repeatCount="indefinite"/></rect></svg>